STARTFONT 2.1
FONT -FontForge-Satisfy-Book-R-Normal--24-240-72-72-P-104-ISO10646-1
SIZE 24 72 72
FONTBOUNDINGBOX 27 34 -5 -12
COMMENT "Generated by fontforge, http://fontforge.sourceforge.net"
COMMENT "Copyright (c) 2011 by Font Diner, Inc. All rights reserved."
STARTPROPERTIES 39
FOUNDRY "FontForge"
FAMILY_NAME "Satisfy"
WEIGHT_NAME "Book"
SLANT "R"
SETWIDTH_NAME "Normal"
ADD_STYLE_NAME ""
PIXEL_SIZE 24
POINT_SIZE 240
RESOLUTION_X 72
RESOLUTION_Y 72
SPACING "P"
AVERAGE_WIDTH 104
CHARSET_REGISTRY "ISO10646"
CHARSET_ENCODING "1"
FONTNAME_REGISTRY ""
CHARSET_COLLECTIONS "ISO10646-1"
FONT_NAME "Satisfy-Regular"
FACE_NAME "Satisfy Regular"
COPYRIGHT "Copyright (c) 2011 by Font Diner, Inc. All rights reserved."
FONT_VERSION "1.001"
FONT_ASCENT 19
FONT_DESCENT 5
UNDERLINE_POSITION -2
UNDERLINE_THICKNESS 2
X_HEIGHT 9
CAP_HEIGHT 17
RAW_ASCENT 799
RAW_DESCENT 200
NORM_SPACE 7
RELATIVE_WEIGHT 40
RELATIVE_SETWIDTH 50
SUPERSCRIPT_X 0
SUPERSCRIPT_Y 11
SUPERSCRIPT_SIZE 15
SUBSCRIPT_X 0
SUBSCRIPT_Y 3
SUBSCRIPT_SIZE 15
AVG_LOWERCASE_WIDTH 98
AVG_UPPERCASE_WIDTH 136
ENDPROPERTIES
CHARS 227
STARTCHAR space
ENCODING 32
SWIDTH 280 0
DWIDTH 7 0
BBX 1 1 0 0
BITMAP
00
ENDCHAR
STARTCHAR exclam
ENCODING 33
SWIDTH 249 0
DWIDTH 6 0
BBX 6 19 0 -1
BITMAP
04
0C
0C
1C
18
18
18
38
30
30
30
70
60
60
40
00
60
E0
80
ENDCHAR
STARTCHAR quotedbl
ENCODING 34
SWIDTH 249 0
DWIDTH 6 0
BBX 7 7 1 11
BITMAP
32
64
6C
6C
4C
C8
D8
ENDCHAR
STARTCHAR numbersign
ENCODING 35
SWIDTH 417 0
DWIDTH 10 0
BBX 12 12 -1 3
BITMAP
0660
0640
04C0
3FF0
7FE0
0980
1980
7FE0
FFC0
3300
3200
3600
ENDCHAR
STARTCHAR dollar
ENCODING 36
SWIDTH 292 0
DWIDTH 7 0
BBX 9 17 -1 0
BITMAP
0200
0600
1D00
1180
3180
3180
1200
1800
1800
0C00
0C00
4400
C600
C400
7C00
3000
2000
ENDCHAR
STARTCHAR percent
ENCODING 37
SWIDTH 574 0
DWIDTH 14 0
BBX 14 18 0 0
BITMAP
0004
1C18
3618
6230
6260
4640
46C0
6D80
3900
0300
0670
0CD0
0D98
1918
3118
3110
6130
E1E0
ENDCHAR
STARTCHAR ampersand
ENCODING 38
SWIDTH 460 0
DWIDTH 11 0
BBX 11 19 -1 -1
BITMAP
00C0
0360
0260
0640
06C0
0780
0700
0600
0E00
1E00
3600
7600
E600
C720
C720
C3C0
E380
7F80
11C0
ENDCHAR
STARTCHAR quotesingle
ENCODING 39
SWIDTH 113 0
DWIDTH 3 0
BBX 4 7 1 11
BITMAP
30
60
60
60
40
C0
C0
ENDCHAR
STARTCHAR parenleft
ENCODING 40
SWIDTH 234 0
DWIDTH 6 0
BBX 8 23 0 -3
BITMAP
01
02
06
0C
08
18
10
30
30
20
60
60
60
60
60
40
C0
C0
40
40
40
60
20
ENDCHAR
STARTCHAR parenright
ENCODING 41
SWIDTH 204 0
DWIDTH 5 0
BBX 8 23 -3 -3
BITMAP
04
06
02
02
03
03
03
03
02
06
06
06
06
04
0C
0C
08
18
10
30
60
40
80
ENDCHAR
STARTCHAR asterisk
ENCODING 42
SWIDTH 327 0
DWIDTH 8 0
BBX 8 8 1 9
BITMAP
0C
48
EB
3F
38
6C
66
04
ENDCHAR
STARTCHAR plus
ENCODING 43
SWIDTH 350 0
DWIDTH 8 0
BBX 8 8 0 5
BITMAP
0C
0C
08
3F
FF
98
18
30
ENDCHAR
STARTCHAR comma
ENCODING 44
SWIDTH 200 0
DWIDTH 5 0
BBX 3 5 -1 -3
BITMAP
60
E0
60
40
C0
ENDCHAR
STARTCHAR hyphen
ENCODING 45
SWIDTH 353 0
DWIDTH 8 0
BBX 8 2 0 6
BITMAP
FF
80
ENDCHAR
STARTCHAR period
ENCODING 46
SWIDTH 213 0
DWIDTH 5 0
BBX 3 3 -1 -1
BITMAP
60
E0
40
ENDCHAR
STARTCHAR slash
ENCODING 47
SWIDTH 262 0
DWIDTH 6 0
BBX 11 18 -2 0
BITMAP
0020
0060
00C0
00C0
0180
0100
0300
0600
0600
0C00
0800
1800
1000
3000
2000
6000
C000
C000
ENDCHAR
STARTCHAR zero
ENCODING 48
SWIDTH 489 0
DWIDTH 12 0
BBX 10 19 1 -1
BITMAP
0300
0F80
1980
3880
30C0
60C0
60C0
60C0
C0C0
C080
C180
C180
C180
C300
C300
C600
CE00
7C00
2000
ENDCHAR
STARTCHAR one
ENCODING 49
SWIDTH 272 0
DWIDTH 7 0
BBX 6 17 0 0
BITMAP
0C
3C
1C
18
18
18
18
10
30
30
30
20
60
60
60
60
E0
ENDCHAR
STARTCHAR two
ENCODING 50
SWIDTH 448 0
DWIDTH 11 0
BBX 11 19 -1 -1
BITMAP
0180
06E0
0C60
1860
1860
1860
0060
00C0
01C0
0180
0300
0600
0C00
1800
3000
6000
FF80
7F80
4080
ENDCHAR
STARTCHAR three
ENCODING 51
SWIDTH 462 0
DWIDTH 11 0
BBX 11 19 0 -1
BITMAP
0300
1FC0
18C0
3060
30E0
38C0
00C0
0180
0700
1E00
0B80
0180
0180
0180
4180
C300
E700
7E00
3800
ENDCHAR
STARTCHAR four
ENCODING 52
SWIDTH 452 0
DWIDTH 11 0
BBX 10 17 0 0
BITMAP
01C0
03C0
06C0
0E80
0C80
1980
3180
6100
C780
FFC0
4380
0300
0700
0600
0600
0600
0600
ENDCHAR
STARTCHAR five
ENCODING 53
SWIDTH 444 0
DWIDTH 11 0
BBX 11 18 0 -1
BITMAP
0FE0
1FE0
1820
1000
1000
3000
2700
2F80
7980
3180
0180
0180
4100
C300
E200
FE00
7C00
3000
ENDCHAR
STARTCHAR six
ENCODING 54
SWIDTH 477 0
DWIDTH 11 0
BBX 9 19 1 -1
BITMAP
0300
0780
0C80
1980
3180
3000
6000
6F00
F980
F180
F180
D180
C180
C300
C300
C600
6600
7C00
1000
ENDCHAR
STARTCHAR seven
ENCODING 55
SWIDTH 406 0
DWIDTH 10 0
BBX 10 17 1 0
BITMAP
7FC0
70C0
4180
0180
0300
0600
0600
0C00
1C00
1800
3800
3000
7000
6000
6000
E000
E000
ENDCHAR
STARTCHAR eight
ENCODING 56
SWIDTH 444 0
DWIDTH 11 0
BBX 11 19 0 -1
BITMAP
0300
06C0
0840
1860
1840
18C0
1980
1F00
0E00
1E00
3700
6300
C300
C300
C300
C300
C600
FC00
1800
ENDCHAR
STARTCHAR nine
ENCODING 57
SWIDTH 462 0
DWIDTH 11 0
BBX 10 19 0 -1
BITMAP
0100
0F80
1CC0
1840
3040
3040
30C0
60C0
61C0
21C0
33C0
3E80
1980
0180
4300
4600
FE00
7C00
2000
ENDCHAR
STARTCHAR colon
ENCODING 58
SWIDTH 226 0
DWIDTH 5 0
BBX 5 8 -1 -1
BITMAP
30
38
20
00
00
60
E0
40
ENDCHAR
STARTCHAR semicolon
ENCODING 59
SWIDTH 212 0
DWIDTH 5 0
BBX 4 10 -1 -3
BITMAP
30
70
20
00
00
60
E0
60
40
C0
ENDCHAR
STARTCHAR less
ENCODING 60
SWIDTH 271 0
DWIDTH 7 0
BBX 7 9 0 3
BITMAP
0E
18
30
E0
C0
E0
60
30
38
ENDCHAR
STARTCHAR equal
ENCODING 61
SWIDTH 374 0
DWIDTH 9 0
BBX 9 5 0 6
BITMAP
1F00
7F80
8000
3F00
FF00
ENDCHAR
STARTCHAR greater
ENCODING 62
SWIDTH 250 0
DWIDTH 6 0
BBX 8 9 -2 3
BITMAP
1C
0C
06
06
07
0E
1C
38
F0
ENDCHAR
STARTCHAR question
ENCODING 63
SWIDTH 413 0
DWIDTH 10 0
BBX 11 19 0 -1
BITMAP
0780
1FC0
3060
7060
3060
0060
00C0
01C0
0380
1E00
3800
3000
7000
6000
6000
0000
6000
E000
C000
ENDCHAR
STARTCHAR at
ENCODING 64
SWIDTH 648 0
DWIDTH 16 0
BBX 16 15 -1 0
BITMAP
03F8
0E04
1802
30EB
333B
6271
6611
CC31
CC23
CC63
4CC6
6FC6
604C
3078
0E20
ENDCHAR
STARTCHAR A
ENCODING 65
SWIDTH 552 0
DWIDTH 13 0
BBX 15 24 -3 -6
BITMAP
000C
003E
0066
00C6
00C6
0186
0184
030C
030C
030C
060C
060C
0618
1FFE
7C1C
1C18
1C18
1818
3838
3838
3038
7038
803C
0010
ENDCHAR
STARTCHAR B
ENCODING 66
SWIDTH 607 0
DWIDTH 15 0
BBX 14 22 0 -4
BITMAP
03C0
0FF8
3E18
361C
0C1C
0C1C
0C18
1838
1830
1860
1FC0
3FC0
3660
3030
3030
6038
6030
6070
E070
E0E0
C3C0
FF00
ENDCHAR
STARTCHAR C
ENCODING 67
SWIDTH 548 0
DWIDTH 13 0
BBX 13 22 0 -4
BITMAP
00E0
03F0
0718
0E18
1C18
1818
3838
3078
7030
7000
6000
E000
E000
E000
E000
E000
E000
E020
E040
60C0
7B80
3F00
ENDCHAR
STARTCHAR D
ENCODING 68
SWIDTH 632 0
DWIDTH 15 0
BBX 14 22 0 -4
BITMAP
0380
1FE0
1C70
1018
041C
0C0C
0C0C
1C0C
1C0C
180C
180C
181C
181C
3018
3018
3038
3070
6060
60E0
61C0
E700
7E00
ENDCHAR
STARTCHAR E
ENCODING 69
SWIDTH 523 0
DWIDTH 13 0
BBX 14 22 -1 -4
BITMAP
0060
03D8
070C
0E0C
1C0C
1C18
1838
1810
1C00
1C00
0E00
07C0
1880
3000
6000
6000
E010
E030
E020
7040
7DC0
3F00
ENDCHAR
STARTCHAR F
ENCODING 70
SWIDTH 585 0
DWIDTH 14 0
BBX 13 22 1 -4
BITMAP
03C0
3FF0
7018
E018
E010
F830
3020
0060
0040
00C0
3FF0
7180
0180
0300
0300
0700
0600
0E00
0E00
0E00
0C00
0E00
ENDCHAR
STARTCHAR G
ENCODING 71
SWIDTH 612 0
DWIDTH 15 0
BBX 14 23 0 -5
BITMAP
0060
01F8
0318
0618
0C18
1C18
1838
3878
3830
7000
7000
7000
61FC
63F8
E030
E030
E020
E060
60C0
60C0
3180
3F00
0400
ENDCHAR
STARTCHAR H
ENCODING 72
SWIDTH 649 0
DWIDTH 16 0
BBX 16 21 0 -4
BITMAP
0607
0E06
0C06
0C0E
0C0C
1C0C
180C
1818
1818
38F8
3FFE
773C
31B0
30B0
60A0
60E0
6060
6060
E060
E0C0
C0C0
ENDCHAR
STARTCHAR I
ENCODING 73
SWIDTH 537 0
DWIDTH 13 0
BBX 15 22 -2 -4
BITMAP
0008
007C
00EC
00CC
01CC
018C
0198
0198
0198
0198
01B8
00B0
0030
03FE
1F60
7860
6060
E0C0
E0C0
6180
7100
3F00
ENDCHAR
STARTCHAR J
ENCODING 74
SWIDTH 500 0
DWIDTH 12 0
BBX 16 23 -2 -5
BITMAP
0018
01FF
0118
0018
0018
0038
0030
0030
0030
0070
0070
0860
1C60
3CE0
70E0
60C0
C0C0
C180
C180
C300
C300
6E00
1800
ENDCHAR
STARTCHAR K
ENCODING 75
SWIDTH 497 0
DWIDTH 12 0
BBX 14 25 -1 -7
BITMAP
0304
061C
061C
0E1C
0C18
0C38
1C30
1870
18E0
19C0
3380
3600
3F80
71C0
30C0
60C0
60C0
61C0
6180
E180
E380
E300
0180
01F8
0040
ENDCHAR
STARTCHAR L
ENCODING 76
SWIDTH 492 0
DWIDTH 12 0
BBX 15 23 -2 -5
BITMAP
000C
003E
0036
0066
006C
00CC
00D8
00F0
1FE0
1FC0
0180
0180
0180
0300
0300
0300
0600
0600
7C00
FE08
FF98
E3F0
0060
ENDCHAR
STARTCHAR M
ENCODING 77
SWIDTH 733 0
DWIDTH 18 0
BBX 19 21 -2 -4
BITMAP
00E0E0
00E0E0
01E1E0
01E1E0
016360
036340
0366C0
0366C0
0664C0
064CC0
06C980
26D980
4CD980
CCF180
CCF180
8C7300
9C6300
987300
980300
F80380
F003C0
ENDCHAR
STARTCHAR N
ENCODING 78
SWIDTH 541 0
DWIDTH 13 0
BBX 16 22 -1 -4
BITMAP
0002
0E0F
0E0D
0E19
0E1B
1E1A
1E36
1E7C
1230
3230
3230
3230
2260
6260
6260
6360
6360
E3C0
E3C0
E1C0
E1C0
E180
ENDCHAR
STARTCHAR O
ENCODING 79
SWIDTH 567 0
DWIDTH 14 0
BBX 12 23 0 -5
BITMAP
0180
07E0
0F30
0C30
1830
1830
3030
3030
7030
6030
6030
6030
E030
E030
E060
E060
C060
E0C0
E0C0
6180
6300
3E00
0800
ENDCHAR
STARTCHAR P
ENCODING 80
SWIDTH 552 0
DWIDTH 13 0
BBX 15 22 -1 -4
BITMAP
00F0
07F8
1E0C
3E0C
160E
060E
040C
0C0C
0C1C
0C18
1830
1860
19C0
1F00
3800
3000
3000
3000
7000
7000
6000
E000
ENDCHAR
STARTCHAR Q
ENCODING 81
SWIDTH 583 0
DWIDTH 14 0
BBX 12 22 1 -4
BITMAP
0180
0FE0
1C60
1830
3030
7030
6030
E030
E030
C030
C030
C060
C060
C060
C0C0
70C0
2180
1380
7F00
C700
DD80
F8F0
ENDCHAR
STARTCHAR R
ENCODING 82
SWIDTH 560 0
DWIDTH 13 0
BBX 15 24 -1 -6
BITMAP
00F0
07B8
1E0C
3A0E
160E
060E
060E
0C0C
0C0C
0C18
0C38
1E70
3BC0
3F80
1980
38C0
38C0
30C0
30C0
70C0
70C0
E0E0
0078
0070
ENDCHAR
STARTCHAR S
ENCODING 83
SWIDTH 474 0
DWIDTH 11 0
BBX 13 23 -1 -5
BITMAP
01E0
07B0
0E18
1C18
1818
1838
1830
1800
1C00
0E00
0700
0380
0380
0180
01C0
00C0
6080
C080
C180
E100
E300
7E00
1800
ENDCHAR
STARTCHAR T
ENCODING 84
SWIDTH 423 0
DWIDTH 10 0
BBX 12 21 1 -4
BITMAP
FFF0
FE00
0600
0E00
0C00
0C00
0C00
1C00
1800
1800
1800
1800
3000
3000
3000
3000
7000
6000
6000
6000
E000
ENDCHAR
STARTCHAR U
ENCODING 85
SWIDTH 574 0
DWIDTH 14 0
BBX 15 21 0 -4
BITMAP
0E0E
0C0C
1C1C
1C18
1818
3838
3838
3030
3030
7030
6060
6060
6060
6060
E0E0
C0E0
C1C0
C1C0
E3C0
66C0
7C60
ENDCHAR
STARTCHAR V
ENCODING 86
SWIDTH 503 0
DWIDTH 12 0
BBX 13 23 1 -5
BITMAP
0800
3038
7030
6070
6060
60E0
60C0
C0C0
C1C0
C180
C180
C380
C300
C300
C700
C600
C600
4400
4C00
6800
7800
3000
1000
ENDCHAR
STARTCHAR W
ENCODING 87
SWIDTH 817 0
DWIDTH 20 0
BBX 18 23 1 -5
BITMAP
0000C0
1C01C0
1860C0
3060C0
30E0C0
70E0C0
60E0C0
60C0C0
60C1C0
C0C180
C0C180
C18180
C18180
C18300
838300
838200
868600
868600
CC8C00
CC8C00
F8F800
70F000
004000
ENDCHAR
STARTCHAR X
ENCODING 88
SWIDTH 579 0
DWIDTH 14 0
BBX 17 22 -1 -4
BITMAP
0C0100
1E0380
360700
230E00
331C00
331800
3F3000
197000
01E000
01C000
01C000
018000
038000
038000
078000
0D8000
0C8000
18C000
38C000
30C200
606400
E07800
ENDCHAR
STARTCHAR Y
ENCODING 89
SWIDTH 532 0
DWIDTH 13 0
BBX 14 22 0 -4
BITMAP
000C
1C18
1818
1818
3838
3030
3030
3030
7070
6060
6060
60E0
61E0
6140
77C0
3CC0
0080
0180
0180
6300
FE00
7C00
ENDCHAR
STARTCHAR Z
ENCODING 90
SWIDTH 455 0
DWIDTH 11 0
BBX 14 21 -2 -4
BITMAP
0FFC
0F8C
081C
0018
0038
0030
0070
00E0
01C0
0180
0300
0600
0E00
1C00
1800
3000
7000
6000
C7C0
FFE0
FFC0
ENDCHAR
STARTCHAR bracketleft
ENCODING 91
SWIDTH 202 0
DWIDTH 5 0
BBX 8 23 -1 -3
BITMAP
07
07
0C
0C
0C
08
18
18
10
10
30
30
20
20
60
60
60
40
C0
C0
C0
E0
E0
ENDCHAR
STARTCHAR backslash
ENCODING 92
SWIDTH 273 0
DWIDTH 7 0
BBX 4 18 1 0
BITMAP
40
C0
C0
C0
C0
40
40
60
60
60
60
60
20
30
30
30
30
30
ENDCHAR
STARTCHAR bracketright
ENCODING 93
SWIDTH 216 0
DWIDTH 5 0
BBX 8 23 -2 -3
BITMAP
07
0F
03
03
02
06
06
06
04
04
0C
0C
0C
08
18
18
10
10
30
30
20
E0
C0
ENDCHAR
STARTCHAR asciicircum
ENCODING 94
SWIDTH 287 0
DWIDTH 7 0
BBX 9 8 -1 9
BITMAP
0700
0F00
0F00
1B00
3300
3300
6100
E180
ENDCHAR
STARTCHAR underscore
ENCODING 95
SWIDTH 439 0
DWIDTH 11 0
BBX 13 2 -3 0
BITMAP
7FF0
FFF8
ENDCHAR
STARTCHAR grave
ENCODING 96
SWIDTH 567 0
DWIDTH 14 0
BBX 4 3 6 13
BITMAP
E0
70
10
ENDCHAR
STARTCHAR a
ENCODING 97
SWIDTH 435 0
DWIDTH 10 0
BBX 12 10 0 0
BITMAP
0E00
1E00
3700
6200
C210
C610
C620
CE40
DEC0
F380
ENDCHAR
STARTCHAR b
ENCODING 98
SWIDTH 415 0
DWIDTH 10 0
BBX 12 17 0 0
BITMAP
0C00
1C00
1C00
1800
3800
3800
3800
7000
7200
6710
67E0
C300
C200
C600
C400
4C00
7800
ENDCHAR
STARTCHAR c
ENCODING 99
SWIDTH 363 0
DWIDTH 9 0
BBX 11 11 0 -1
BITMAP
1C00
3600
6600
4C00
C020
C040
C080
C100
C200
7C00
1000
ENDCHAR
STARTCHAR d
ENCODING 100
SWIDTH 483 0
DWIDTH 12 0
BBX 14 18 0 -1
BITMAP
0060
0060
0060
00E0
00E0
00E0
00C0
09C0
3DC0
6380
6380
C304
C208
8210
8620
DA40
F380
0100
ENDCHAR
STARTCHAR e
ENCODING 101
SWIDTH 372 0
DWIDTH 9 0
BBX 11 11 0 -1
BITMAP
0C00
3E00
2600
6400
C820
F040
E0C0
C180
C300
7C00
1000
ENDCHAR
STARTCHAR f
ENCODING 102
SWIDTH 325 0
DWIDTH 8 0
BBX 12 28 -2 -11
BITMAP
0300
0700
0700
0700
0600
0600
0600
0400
0C00
0C00
09F0
1E00
3800
3000
3800
3C00
3600
2600
6300
6300
6300
4300
C200
C600
CC00
DC00
F800
F000
ENDCHAR
STARTCHAR g
ENCODING 103
SWIDTH 459 0
DWIDTH 11 0
BBX 13 22 0 -12
BITMAP
0C00
3D80
6380
6300
C308
C310
C330
C760
CEC0
7F00
0600
1E00
3400
6C00
CC00
CC00
8C00
9800
9800
F800
7000
2000
ENDCHAR
STARTCHAR h
ENCODING 104
SWIDTH 465 0
DWIDTH 11 0
BBX 13 16 0 0
BITMAP
1C00
1800
1800
1800
3000
3000
3000
3700
6B00
7300
6300
6318
C210
C660
C6C0
C780
ENDCHAR
STARTCHAR i
ENCODING 105
SWIDTH 274 0
DWIDTH 7 0
BBX 8 15 0 0
BITMAP
18
18
00
00
00
00
30
70
60
61
61
42
C4
58
70
ENDCHAR
STARTCHAR j
ENCODING 106
SWIDTH 267 0
DWIDTH 6 0
BBX 13 27 -5 -11
BITMAP
0040
00E0
00C0
0000
0000
0000
0000
0180
0180
0300
0308
0308
0310
0660
06C0
0780
0600
0C00
1C00
3C00
6C00
C800
D800
D800
D000
7000
2000
ENDCHAR
STARTCHAR k
ENCODING 107
SWIDTH 440 0
DWIDTH 11 0
BBX 13 18 -1 -1
BITMAP
0400
0C00
0C00
0C00
0C00
1800
1800
1900
1380
3D80
3980
3300
2E08
6B10
6330
4260
C3C0
0300
ENDCHAR
STARTCHAR l
ENCODING 108
SWIDTH 218 0
DWIDTH 5 0
BBX 5 16 0 0
BITMAP
18
18
18
38
30
30
30
30
60
60
60
60
C0
C0
C0
C0
ENDCHAR
STARTCHAR m
ENCODING 109
SWIDTH 717 0
DWIDTH 17 0
BBX 19 10 0 -1
BITMAP
371C00
3FBC00
79CC00
718C20
638C20
631840
C31880
C21900
C61E00
800800
ENDCHAR
STARTCHAR n
ENCODING 110
SWIDTH 461 0
DWIDTH 11 0
BBX 13 10 0 -1
BITMAP
3700
6F00
7300
6308
6310
C310
C620
C640
C780
0200
ENDCHAR
STARTCHAR o
ENCODING 111
SWIDTH 393 0
DWIDTH 9 0
BBX 12 10 0 0
BITMAP
0800
3C00
6610
6220
E2C0
FF80
DE00
C600
CC00
7800
ENDCHAR
STARTCHAR p
ENCODING 112
SWIDTH 451 0
DWIDTH 11 0
BBX 16 19 -3 -10
BITMAP
0EE0
07E0
0E20
0C21
0C62
0864
1CCC
1FD8
1FF0
1200
3000
3000
3000
3000
6000
6000
6000
6000
E000
ENDCHAR
STARTCHAR q
ENCODING 113
SWIDTH 462 0
DWIDTH 11 0
BBX 12 20 0 -11
BITMAP
1F80
2380
6380
C100
C300
C310
C710
C620
FE40
3680
0700
0600
0C00
0C00
0C00
1C00
1C00
1C00
1C00
0C00
ENDCHAR
STARTCHAR r
ENCODING 114
SWIDTH 406 0
DWIDTH 10 0
BBX 14 12 -2 -1
BITMAP
0C00
0E00
1C00
0F80
1980
1184
3188
2310
6230
4660
87C0
0300
ENDCHAR
STARTCHAR s
ENCODING 115
SWIDTH 351 0
DWIDTH 8 0
BBX 7 12 0 -1
BITMAP
08
1C
38
38
38
4C
8C
0C
46
64
78
30
ENDCHAR
STARTCHAR t
ENCODING 116
SWIDTH 301 0
DWIDTH 7 0
BBX 12 18 -2 -1
BITMAP
0300
0300
0700
0700
FFF0
2E00
0E00
0C00
0C00
0C00
1800
1820
1020
1040
1080
1100
1E00
0400
ENDCHAR
STARTCHAR u
ENCODING 117
SWIDTH 468 0
DWIDTH 11 0
BBX 13 9 0 0
BITMAP
3180
6380
6300
C308
C308
C610
C620
CE40
7B80
ENDCHAR
STARTCHAR v
ENCODING 118
SWIDTH 427 0
DWIDTH 10 0
BBX 13 10 0 -1
BITMAP
6180
E380
C308
C330
C7C0
C400
CC00
7800
7000
2000
ENDCHAR
STARTCHAR w
ENCODING 119
SWIDTH 646 0
DWIDTH 16 0
BBX 18 11 0 -1
BITMAP
010000
631800
631800
631840
E21980
C21E00
C63000
C63000
CA6000
73C000
200000
ENDCHAR
STARTCHAR x
ENCODING 120
SWIDTH 399 0
DWIDTH 10 0
BBX 12 11 -1 -1
BITMAP
3080
31C0
3380
1F00
1E00
1C00
1C10
3C20
64C0
C780
8000
ENDCHAR
STARTCHAR y
ENCODING 121
SWIDTH 406 0
DWIDTH 10 0
BBX 9 19 0 -10
BITMAP
6380
6380
6300
C300
C700
C600
CE00
DE00
F600
2400
0C00
0C00
0C00
0C00
1800
1800
1800
1800
3800
ENDCHAR
STARTCHAR z
ENCODING 122
SWIDTH 448 0
DWIDTH 11 0
BBX 13 20 -1 -10
BITMAP
0180
0FC0
18C0
0080
0180
0308
0308
0790
0EA0
08C0
0380
0D80
1980
3300
6300
4700
C600
CC00
DC00
7800
ENDCHAR
STARTCHAR braceleft
ENCODING 123
SWIDTH 243 0
DWIDTH 6 0
BBX 9 23 -1 -3
BITMAP
0180
0700
0E00
0C00
0C00
0C00
0C00
0C00
0C00
0800
3000
3000
1000
1000
1000
3000
6000
6000
4000
E000
7000
7000
3000
ENDCHAR
STARTCHAR bar
ENCODING 124
SWIDTH 253 0
DWIDTH 6 0
BBX 6 18 0 0
BITMAP
04
0C
0C
18
18
18
10
30
30
30
20
20
60
60
60
60
C0
C0
ENDCHAR
STARTCHAR braceright
ENCODING 125
SWIDTH 243 0
DWIDTH 6 0
BBX 8 23 -2 -3
BITMAP
04
06
0F
03
03
03
06
04
0C
0C
0C
06
0E
18
18
10
10
18
18
30
F0
E0
C0
ENDCHAR
STARTCHAR asciitilde
ENCODING 126
SWIDTH 329 0
DWIDTH 8 0
BBX 9 3 -1 7
BITMAP
3880
FF80
4300
ENDCHAR
STARTCHAR uni00A0
ENCODING 160
SWIDTH 280 0
DWIDTH 7 0
BBX 1 1 0 0
BITMAP
00
ENDCHAR
STARTCHAR exclamdown
ENCODING 161
SWIDTH 249 0
DWIDTH 6 0
BBX 6 19 0 -1
BITMAP
04
1C
08
00
08
18
18
30
30
30
30
70
60
60
60
E0
C0
C0
80
ENDCHAR
STARTCHAR cent
ENCODING 162
SWIDTH 322 0
DWIDTH 8 0
BBX 8 17 0 0
BITMAP
06
04
0E
19
33
67
46
C0
C0
C0
80
80
C4
68
70
20
60
ENDCHAR
STARTCHAR sterling
ENCODING 163
SWIDTH 318 0
DWIDTH 8 0
BBX 9 15 -1 1
BITMAP
0780
0C80
1880
1980
1300
1000
1000
7E00
7C00
2000
6000
6000
4000
FE00
C200
ENDCHAR
STARTCHAR currency
ENCODING 164
SWIDTH 347 0
DWIDTH 8 0
BBX 9 8 0 5
BITMAP
4100
2F80
3E00
2200
2600
2400
7E00
C200
ENDCHAR
STARTCHAR yen
ENCODING 165
SWIDTH 326 0
DWIDTH 8 0
BBX 10 15 0 1
BITMAP
20C0
2180
2100
2300
3200
3400
1C00
1800
3C00
7C00
3800
FC00
2000
2000
6000
ENDCHAR
STARTCHAR brokenbar
ENCODING 166
SWIDTH 253 0
DWIDTH 6 0
BBX 6 18 0 0
BITMAP
04
0C
0C
18
18
18
10
30
00
00
20
20
60
60
60
60
C0
C0
ENDCHAR
STARTCHAR section
ENCODING 167
SWIDTH 297 0
DWIDTH 7 0
BBX 9 19 -1 -1
BITMAP
0300
0C80
1880
1180
1800
1800
0400
1E00
3300
6300
6200
2600
1800
0C00
2400
C600
C400
4C00
1000
ENDCHAR
STARTCHAR dieresis
ENCODING 168
SWIDTH 567 0
DWIDTH 14 0
BBX 6 2 5 14
BITMAP
6C
CC
ENDCHAR
STARTCHAR copyright
ENCODING 169
SWIDTH 456 0
DWIDTH 11 0
BBX 12 12 0 5
BITMAP
0FC0
1060
2320
64B0
4930
4830
D830
4920
4E60
60C0
3B80
0600
ENDCHAR
STARTCHAR ordfeminine
ENCODING 170
SWIDTH 373 0
DWIDTH 9 0
BBX 11 13 -1 -1
BITMAP
0400
0E00
1700
3300
6200
6200
6620
6A40
7B80
2000
0000
FF00
8000
ENDCHAR
STARTCHAR guillemotleft
ENCODING 171
SWIDTH 346 0
DWIDTH 8 0
BBX 9 9 -1 0
BITMAP
0D80
1300
3600
6C00
CC00
4C00
6400
2600
3200
ENDCHAR
STARTCHAR logicalnot
ENCODING 172
SWIDTH 512 0
DWIDTH 12 0
BBX 12 6 0 4
BITMAP
1FC0
FFF0
8030
0020
0060
0060
ENDCHAR
STARTCHAR sfthyphen
ENCODING 173
SWIDTH 353 0
DWIDTH 8 0
BBX 8 2 0 6
BITMAP
FF
80
ENDCHAR
STARTCHAR registered
ENCODING 174
SWIDTH 456 0
DWIDTH 11 0
BBX 12 12 0 5
BITMAP
0FC0
1060
2FA0
6CB0
45B0
4F30
CE30
4A20
5960
60C0
3B80
0600
ENDCHAR
STARTCHAR macron
ENCODING 175
SWIDTH 567 0
DWIDTH 14 0
BBX 6 2 5 14
BITMAP
7C
FC
ENDCHAR
STARTCHAR degree
ENCODING 176
SWIDTH 144 0
DWIDTH 3 0
BBX 4 3 1 13
BITMAP
60
90
60
ENDCHAR
STARTCHAR twosuperior
ENCODING 178
SWIDTH 268 0
DWIDTH 6 0
BBX 7 12 0 6
BITMAP
0E
12
32
36
06
0C
08
30
60
58
FC
04
ENDCHAR
STARTCHAR threesuperior
ENCODING 179
SWIDTH 262 0
DWIDTH 6 0
BBX 7 12 0 6
BITMAP
1C
36
22
36
04
18
1C
04
04
CC
78
20
ENDCHAR
STARTCHAR acute
ENCODING 180
SWIDTH 567 0
DWIDTH 14 0
BBX 4 3 6 13
BITMAP
30
70
C0
ENDCHAR
STARTCHAR mu
ENCODING 181
SWIDTH 453 0
DWIDTH 11 0
BBX 14 14 -3 -5
BITMAP
0440
0CC0
18C0
18C0
10C0
3084
3188
3B98
3EF0
6000
6000
6000
C000
8000
ENDCHAR
STARTCHAR paragraph
ENCODING 182
SWIDTH 411 0
DWIDTH 10 0
BBX 11 18 1 0
BITMAP
0240
0FE0
7FC0
FE80
FC80
FD80
FD80
FD00
7900
1B00
1B00
1A00
1200
1200
3600
3600
2400
6C00
ENDCHAR
STARTCHAR periodcentered
ENCODING 183
SWIDTH 168 0
DWIDTH 4 0
BBX 3 2 0 7
BITMAP
60
E0
ENDCHAR
STARTCHAR cedilla
ENCODING 184
SWIDTH 567 0
DWIDTH 14 0
BBX 4 5 6 -3
BITMAP
60
60
B0
10
E0
ENDCHAR
STARTCHAR onesuperior
ENCODING 185
SWIDTH 150 0
DWIDTH 4 0
BBX 4 11 1 7
BITMAP
20
70
60
60
60
40
40
40
C0
C0
C0
ENDCHAR
STARTCHAR ordmasculine
ENCODING 186
SWIDTH 319 0
DWIDTH 8 0
BBX 10 12 -1 -1
BITMAP
1C00
3200
6240
7380
5F00
4600
4400
7C00
1000
0000
FE00
8000
ENDCHAR
STARTCHAR guillemotright
ENCODING 187
SWIDTH 346 0
DWIDTH 8 0
BBX 9 9 -2 0
BITMAP
3600
1300
1B00
1980
0D80
1980
3300
2600
CC00
ENDCHAR
STARTCHAR onequarter
ENCODING 188
SWIDTH 579 0
DWIDTH 14 0
BBX 14 18 -1 0
BITMAP
0804
1C0C
0818
0830
1820
1860
10C0
108C
319C
3338
3668
0648
0DD8
18FC
1814
3010
6030
E030
ENDCHAR
STARTCHAR onehalf
ENCODING 189
SWIDTH 603 0
DWIDTH 14 0
BBX 15 19 -1 -1
BITMAP
0804
1C0C
0818
0830
1820
1860
10C0
109C
31B6
3366
3226
0604
0C0C
0818
1830
3060
70D8
60FC
8004
ENDCHAR
STARTCHAR threequarters
ENCODING 190
SWIDTH 669 0
DWIDTH 16 0
BBX 15 18 0 0
BITMAP
1C02
3606
220C
3618
0418
1830
1C60
0442
04CE
CD8E
7914
2334
0664
047E
0C0C
180C
1808
7018
ENDCHAR
STARTCHAR questiondown
ENCODING 191
SWIDTH 413 0
DWIDTH 10 0
BBX 11 19 -1 -1
BITMAP
0060
00E0
0040
0000
00C0
00C0
0180
0180
0380
0F00
3800
7000
6000
C000
C180
C1C0
C380
7F00
3C00
ENDCHAR
STARTCHAR Agrave
ENCODING 192
SWIDTH 552 0
DWIDTH 13 0
BBX 15 28 -3 -6
BITMAP
001C
000E
0002
0000
000C
003E
0066
00C6
00C6
0186
0184
030C
030C
030C
060C
060C
0618
1FFE
7C1C
1C18
1C18
1818
3838
3838
3038
7038
803C
0010
ENDCHAR
STARTCHAR Aacute
ENCODING 193
SWIDTH 552 0
DWIDTH 13 0
BBX 15 28 -3 -6
BITMAP
0006
000E
0018
0000
000C
003E
0066
00C6
00C6
0186
0184
030C
030C
030C
060C
060C
0618
1FFE
7C1C
1C18
1C18
1818
3838
3838
3038
7038
803C
0010
ENDCHAR
STARTCHAR Acircumflex
ENCODING 194
SWIDTH 552 0
DWIDTH 13 0
BBX 17 27 -3 -6
BITMAP
000E00
003B00
000080
000C00
003E00
006600
00C600
00C600
018600
018400
030C00
030C00
030C00
060C00
060C00
061800
1FFE00
7C1C00
1C1800
1C1800
181800
383800
383800
303800
703800
803C00
001000
ENDCHAR
STARTCHAR Atilde
ENCODING 195
SWIDTH 552 0
DWIDTH 13 0
BBX 17 27 -3 -6
BITMAP
001C80
003F80
000000
000C00
003E00
006600
00C600
00C600
018600
018400
030C00
030C00
030C00
060C00
060C00
061800
1FFE00
7C1C00
1C1800
1C1800
181800
383800
383800
303800
703800
803C00
001000
ENDCHAR
STARTCHAR Adieresis
ENCODING 196
SWIDTH 552 0
DWIDTH 13 0
BBX 17 27 -3 -6
BITMAP
000980
001B80
000000
000C00
003E00
006600
00C600
00C600
018600
018400
030C00
030C00
030C00
060C00
060C00
061800
1FFE00
7C1C00
1C1800
1C1800
181800
383800
383800
303800
703800
803C00
001000
ENDCHAR
STARTCHAR Aring
ENCODING 197
SWIDTH 552 0
DWIDTH 13 0
BBX 15 26 -3 -6
BITMAP
000E
000A
000C
003E
0066
0046
00C6
0186
0184
030C
030C
030C
060C
060C
0618
1FFE
7C1C
1C18
1C18
1818
3838
3838
3038
7038
803C
0010
ENDCHAR
STARTCHAR AE
ENCODING 198
SWIDTH 869 0
DWIDTH 21 0
BBX 24 24 -3 -6
BITMAP
000C1C
003E7F
0067C3
00C783
00C703
018703
01870E
030F04
030F00
030F00
060D80
060DF0
061F20
1FFC00
7C1C00
1C1800
1C1804
181804
383808
383C18
303F70
703FE0
803C00
001000
ENDCHAR
STARTCHAR Ccedilla
ENCODING 199
SWIDTH 548 0
DWIDTH 13 0
BBX 13 27 0 -9
BITMAP
00E0
03F0
0718
0E18
1C18
1818
3838
3078
7030
7000
6000
E000
E000
E000
E000
E000
E000
E020
E040
60C0
7B80
3F00
0800
1800
1E00
0600
1C00
ENDCHAR
STARTCHAR Egrave
ENCODING 200
SWIDTH 523 0
DWIDTH 13 0
BBX 14 26 -1 -4
BITMAP
00E0
0070
0018
0000
0060
03D8
070C
0E0C
1C0C
1C18
1838
1810
1C00
1C00
0E00
07C0
1880
3000
6000
6000
E010
E030
E020
7040
7DC0
3F00
ENDCHAR
STARTCHAR Eacute
ENCODING 201
SWIDTH 523 0
DWIDTH 13 0
BBX 14 26 -1 -4
BITMAP
0018
0030
0060
0000
0060
03D8
070C
0E0C
1C0C
1C18
1838
1810
1C00
1C00
0E00
07C0
1880
3000
6000
6000
E010
E030
E020
7040
7DC0
3F00
ENDCHAR
STARTCHAR Ecircumflex
ENCODING 202
SWIDTH 523 0
DWIDTH 13 0
BBX 14 26 -1 -4
BITMAP
0038
00CC
0000
0000
0060
03D8
070C
0E0C
1C0C
1C18
1838
1810
1C00
1C00
0E00
07C0
1880
3000
6000
6000
E010
E030
E020
7040
7DC0
3F00
ENDCHAR
STARTCHAR Edieresis
ENCODING 203
SWIDTH 523 0
DWIDTH 13 0
BBX 14 25 -1 -4
BITMAP
006C
00CC
0000
0060
03D8
070C
0E0C
1C0C
1C18
1838
1810
1C00
1C00
0E00
07C0
1880
3000
6000
6000
E010
E030
E020
7040
7DC0
3F00
ENDCHAR
STARTCHAR Igrave
ENCODING 204
SWIDTH 537 0
DWIDTH 13 0
BBX 15 26 -2 -4
BITMAP
0030
001C
0004
0000
0008
007C
00EC
00CC
01CC
018C
0198
0198
0198
0198
01B8
00B0
0030
03FE
1F60
7860
6060
E0C0
E0C0
6180
7100
3F00
ENDCHAR
STARTCHAR Iacute
ENCODING 205
SWIDTH 537 0
DWIDTH 13 0
BBX 15 26 -2 -4
BITMAP
0006
001C
0010
0000
0008
007C
00EC
00CC
01CC
018C
0198
0198
0198
0198
01B8
00B0
0030
03FE
1F60
7860
6060
E0C0
E0C0
6180
7100
3F00
ENDCHAR
STARTCHAR Icircumflex
ENCODING 206
SWIDTH 537 0
DWIDTH 13 0
BBX 16 25 -2 -4
BITMAP
000E
0033
0000
0008
007C
00EC
00CC
01CC
018C
0198
0198
0198
0198
01B8
00B0
0030
03FE
1F60
7860
6060
E0C0
E0C0
6180
7100
3F00
ENDCHAR
STARTCHAR Idieresis
ENCODING 207
SWIDTH 537 0
DWIDTH 13 0
BBX 16 25 -2 -4
BITMAP
0013
0037
0000
0008
007C
00EC
00CC
01CC
018C
0198
0198
0198
0198
01B8
00B0
0030
03FE
1F60
7860
6060
E0C0
E0C0
6180
7100
3F00
ENDCHAR
STARTCHAR Eth
ENCODING 208
SWIDTH 632 0
DWIDTH 15 0
BBX 15 22 -1 -4
BITMAP
01C0
0FF0
0E38
080C
020E
0606
0606
0E06
0E06
0C06
3F86
7F8E
8C0E
180C
180C
181C
1838
3030
3070
30E0
7380
3F00
ENDCHAR
STARTCHAR Ntilde
ENCODING 209
SWIDTH 541 0
DWIDTH 13 0
BBX 16 25 -1 -4
BITMAP
01C4
03F8
0000
0002
0E0F
0E0D
0E19
0E1B
1E1A
1E36
1E7C
1230
3230
3230
3230
2260
6260
6260
6360
6360
E3C0
E3C0
E1C0
E1C0
E180
ENDCHAR
STARTCHAR Ograve
ENCODING 210
SWIDTH 567 0
DWIDTH 14 0
BBX 12 27 0 -5
BITMAP
01C0
00E0
0030
0000
0180
07E0
0F30
0C30
1830
1830
3030
3030
7030
6030
6030
6030
E030
E030
E060
E060
C060
E0C0
E0C0
6180
6300
3E00
0800
ENDCHAR
STARTCHAR Oacute
ENCODING 211
SWIDTH 567 0
DWIDTH 14 0
BBX 12 27 0 -5
BITMAP
0070
00E0
0180
0000
0180
07E0
0F30
0C30
1830
1830
3030
3030
7030
6030
6030
6030
E030
E030
E060
E060
C060
E0C0
E0C0
6180
6300
3E00
0800
ENDCHAR
STARTCHAR Ocircumflex
ENCODING 212
SWIDTH 567 0
DWIDTH 14 0
BBX 13 27 0 -5
BITMAP
00E0
03B0
0008
0000
0180
07E0
0F30
0C30
1830
1830
3030
3030
7030
6030
6030
6030
E030
E030
E060
E060
C060
E0C0
E0C0
6180
6300
3E00
0800
ENDCHAR
STARTCHAR Otilde
ENCODING 213
SWIDTH 567 0
DWIDTH 14 0
BBX 13 26 0 -5
BITMAP
0388
07F0
0000
0180
07E0
0F30
0C30
1830
1830
3030
3030
7030
6030
6030
6030
E030
E030
E060
E060
C060
E0C0
E0C0
6180
6300
3E00
0800
ENDCHAR
STARTCHAR Odieresis
ENCODING 214
SWIDTH 567 0
DWIDTH 14 0
BBX 13 26 0 -5
BITMAP
0190
03B8
0000
0180
07E0
0F30
0C30
1830
1830
3030
3030
7030
6030
6030
6030
E030
E030
E060
E060
C060
E0C0
E0C0
6180
6300
3E00
0800
ENDCHAR
STARTCHAR multiply
ENCODING 215
SWIDTH 281 0
DWIDTH 7 0
BBX 9 8 -1 4
BITMAP
3380
1300
1E00
1C00
1800
3800
6C00
C400
ENDCHAR
STARTCHAR Oslash
ENCODING 216
SWIDTH 597 0
DWIDTH 14 0
BBX 15 23 -1 -5
BITMAP
00C6
01FC
039C
0618
0E38
0C3C
1C6C
186C
18CC
38CC
319C
3198
3318
3718
3618
3C30
3C30
3870
3860
30C0
39C0
7F80
E400
ENDCHAR
STARTCHAR Ugrave
ENCODING 217
SWIDTH 574 0
DWIDTH 14 0
BBX 15 25 0 -4
BITMAP
01C0
00E0
0030
0000
0E0E
0C0C
1C1C
1C18
1818
3838
3838
3030
3030
7030
6060
6060
6060
6060
E0E0
C0E0
C1C0
C1C0
E3C0
66C0
7C60
ENDCHAR
STARTCHAR Uacute
ENCODING 218
SWIDTH 574 0
DWIDTH 14 0
BBX 15 25 0 -4
BITMAP
0018
0070
0040
0000
0E0E
0C0C
1C1C
1C18
1818
3838
3838
3030
3030
7030
6060
6060
6060
6060
E0E0
C0E0
C1C0
C1C0
E3C0
66C0
7C60
ENDCHAR
STARTCHAR Ucircumflex
ENCODING 219
SWIDTH 574 0
DWIDTH 14 0
BBX 15 25 0 -4
BITMAP
0070
0198
0000
0000
0E0E
0C0C
1C1C
1C18
1818
3838
3838
3030
3030
7030
6060
6060
6060
6060
E0E0
C0E0
C1C0
C1C0
E3C0
66C0
7C60
ENDCHAR
STARTCHAR Udieresis
ENCODING 220
SWIDTH 574 0
DWIDTH 14 0
BBX 15 25 0 -4
BITMAP
0098
01B8
0000
0000
0E0E
0C0C
1C1C
1C18
1818
3838
3838
3030
3030
7030
6060
6060
6060
6060
E0E0
C0E0
C1C0
C1C0
E3C0
66C0
7C60
ENDCHAR
STARTCHAR Yacute
ENCODING 221
SWIDTH 532 0
DWIDTH 13 0
BBX 14 25 0 -4
BITMAP
0030
00E0
0080
000C
1C18
1818
1818
3838
3030
3030
3030
7070
6060
6060
60E0
61E0
6140
77C0
3CC0
0080
0180
0180
6300
FE00
7C00
ENDCHAR
STARTCHAR Thorn
ENCODING 222
SWIDTH 569 0
DWIDTH 14 0
BBX 14 21 -1 -4
BITMAP
0600
0600
0E00
0C00
0FF0
1C18
3C1C
380C
180C
180C
381C
3018
3038
3070
30E0
61C0
7F00
6000
6000
E000
E000
ENDCHAR
STARTCHAR germandbls
ENCODING 223
SWIDTH 495 0
DWIDTH 12 0
BBX 14 27 -3 -11
BITMAP
00E0
01F0
0398
0318
0630
0630
0660
0460
0C60
0C20
0830
1818
7818
18CC
1CC8
36F0
3360
2300
2300
6300
6300
6300
4600
C600
CC00
F800
F000
ENDCHAR
STARTCHAR agrave
ENCODING 224
SWIDTH 435 0
DWIDTH 10 0
BBX 12 14 0 0
BITMAP
1C00
0E00
0200
0000
0E00
1E00
3700
6200
C210
C610
C620
CE40
DEC0
F380
ENDCHAR
STARTCHAR aacute
ENCODING 225
SWIDTH 435 0
DWIDTH 10 0
BBX 12 14 0 0
BITMAP
0300
0E00
0800
0000
0E00
1E00
3700
6200
C210
C610
C620
CE40
DEC0
F380
ENDCHAR
STARTCHAR acircumflex
ENCODING 226
SWIDTH 435 0
DWIDTH 10 0
BBX 12 14 0 0
BITMAP
0E00
1B00
2080
0000
0E00
1E00
3700
6200
C210
C610
C620
CE40
DEC0
F380
ENDCHAR
STARTCHAR atilde
ENCODING 227
SWIDTH 435 0
DWIDTH 10 0
BBX 12 13 0 0
BITMAP
1C80
3F80
0000
0E00
1E00
3700
6200
C210
C610
C620
CE40
DEC0
F380
ENDCHAR
STARTCHAR adieresis
ENCODING 228
SWIDTH 435 0
DWIDTH 10 0
BBX 12 13 0 0
BITMAP
0D80
1980
0000
0E00
1E00
3700
6200
C210
C610
C620
CE40
DEC0
F380
ENDCHAR
STARTCHAR aring
ENCODING 229
SWIDTH 435 0
DWIDTH 10 0
BBX 12 14 0 0
BITMAP
0E00
0A00
0C00
0000
0E00
1E00
3700
6200
C210
C610
C620
CE40
DEC0
F380
ENDCHAR
STARTCHAR ae
ENCODING 230
SWIDTH 594 0
DWIDTH 14 0
BBX 16 11 0 -1
BITMAP
0E70
1EF0
37B0
6330
C761
C781
C702
CE0C
DF18
F3F0
0080
ENDCHAR
STARTCHAR ccedilla
ENCODING 231
SWIDTH 363 0
DWIDTH 9 0
BBX 11 16 0 -6
BITMAP
1C00
3600
6600
4C00
C020
C040
C080
C100
C200
7C00
3000
2000
7800
0800
3000
4000
ENDCHAR
STARTCHAR egrave
ENCODING 232
SWIDTH 372 0
DWIDTH 9 0
BBX 11 15 0 -1
BITMAP
1800
0E00
0200
0000
0C00
3E00
2600
6400
C820
F040
E0C0
C180
C300
7C00
1000
ENDCHAR
STARTCHAR eacute
ENCODING 233
SWIDTH 372 0
DWIDTH 9 0
BBX 11 15 0 -1
BITMAP
0600
0E00
1800
0000
0C00
3E00
2600
6400
C820
F040
E0C0
C180
C300
7C00
1000
ENDCHAR
STARTCHAR ecircumflex
ENCODING 234
SWIDTH 372 0
DWIDTH 9 0
BBX 11 15 0 -1
BITMAP
0E00
3B00
0080
0000
0C00
3E00
2600
6400
C820
F040
E0C0
C180
C300
7C00
1000
ENDCHAR
STARTCHAR edieresis
ENCODING 235
SWIDTH 372 0
DWIDTH 9 0
BBX 11 14 0 -1
BITMAP
1900
3B80
0000
0C00
3E00
2600
6400
C820
F040
E0C0
C180
C300
7C00
1000
ENDCHAR
STARTCHAR igrave
ENCODING 236
SWIDTH 274 0
DWIDTH 7 0
BBX 8 14 0 0
BITMAP
E0
30
18
00
00
30
70
60
61
61
42
C4
58
70
ENDCHAR
STARTCHAR iacute
ENCODING 237
SWIDTH 274 0
DWIDTH 7 0
BBX 8 14 0 0
BITMAP
06
0C
10
00
00
30
70
60
61
61
42
C4
58
70
ENDCHAR
STARTCHAR icircumflex
ENCODING 238
SWIDTH 274 0
DWIDTH 7 0
BBX 8 13 0 0
BITMAP
3C
6C
82
00
30
70
60
61
61
42
C4
58
70
ENDCHAR
STARTCHAR idieresis
ENCODING 239
SWIDTH 274 0
DWIDTH 7 0
BBX 8 13 0 0
BITMAP
66
6E
00
00
30
70
60
61
61
42
C4
58
70
ENDCHAR
STARTCHAR eth
ENCODING 240
SWIDTH 393 0
DWIDTH 9 0
BBX 12 16 0 0
BITMAP
0400
0600
0240
0FC0
1E00
2300
0B00
3F00
6710
6220
E2C0
FF80
DE00
C600
CC00
7800
ENDCHAR
STARTCHAR ntilde
ENCODING 241
SWIDTH 461 0
DWIDTH 11 0
BBX 13 14 0 -1
BITMAP
1C80
3F80
0000
0000
3700
6F00
7300
6308
6310
C310
C620
C640
C780
0200
ENDCHAR
STARTCHAR ograve
ENCODING 242
SWIDTH 393 0
DWIDTH 9 0
BBX 12 14 0 0
BITMAP
1800
0E00
0200
0000
0800
3C00
6610
6220
E2C0
FF80
DE00
C600
CC00
7800
ENDCHAR
STARTCHAR oacute
ENCODING 243
SWIDTH 393 0
DWIDTH 9 0
BBX 12 14 0 0
BITMAP
0600
0E00
1800
0000
0800
3C00
6610
6220
E2C0
FF80
DE00
C600
CC00
7800
ENDCHAR
STARTCHAR ocircumflex
ENCODING 244
SWIDTH 393 0
DWIDTH 9 0
BBX 12 13 0 0
BITMAP
1E00
3600
4100
0800
3C00
6610
6220
E2C0
FF80
DE00
C600
CC00
7800
ENDCHAR
STARTCHAR otilde
ENCODING 245
SWIDTH 393 0
DWIDTH 9 0
BBX 12 13 0 0
BITMAP
3900
7F00
0000
0800
3C00
6610
6220
E2C0
FF80
DE00
C600
CC00
7800
ENDCHAR
STARTCHAR odieresis
ENCODING 246
SWIDTH 393 0
DWIDTH 9 0
BBX 12 13 0 0
BITMAP
1B00
3300
0000
0800
3C00
6610
6220
E2C0
FF80
DE00
C600
CC00
7800
ENDCHAR
STARTCHAR divide
ENCODING 247
SWIDTH 350 0
DWIDTH 8 0
BBX 8 7 0 5
BITMAP
0C
00
1E
FF
80
10
38
ENDCHAR
STARTCHAR oslash
ENCODING 248
SWIDTH 406 0
DWIDTH 10 0
BBX 13 13 -1 -2
BITMAP
0040
0580
1F80
3108
3110
71E0
7FC0
6F00
6300
6600
7C00
E000
8000
ENDCHAR
STARTCHAR ugrave
ENCODING 249
SWIDTH 468 0
DWIDTH 11 0
BBX 13 13 0 0
BITMAP
1C00
0E00
0200
0000
3180
6380
6300
C308
C308
C610
C620
CE40
7B80
ENDCHAR
STARTCHAR uacute
ENCODING 250
SWIDTH 468 0
DWIDTH 11 0
BBX 13 13 0 0
BITMAP
0300
0E00
0800
0000
3180
6380
6300
C308
C308
C610
C620
CE40
7B80
ENDCHAR
STARTCHAR ucircumflex
ENCODING 251
SWIDTH 468 0
DWIDTH 11 0
BBX 13 13 0 0
BITMAP
0F00
1B00
2080
0000
3180
6380
6300
C308
C308
C610
C620
CE40
7B80
ENDCHAR
STARTCHAR udieresis
ENCODING 252
SWIDTH 468 0
DWIDTH 11 0
BBX 13 13 0 0
BITMAP
0980
1980
0000
0000
3180
6380
6300
C308
C308
C610
C620
CE40
7B80
ENDCHAR
STARTCHAR yacute
ENCODING 253
SWIDTH 406 0
DWIDTH 10 0
BBX 9 24 0 -10
BITMAP
0300
0700
0C00
0000
0000
6380
6380
6300
C300
C700
C600
CE00
DE00
F600
2400
0C00
0C00
0C00
0C00
1800
1800
1800
1800
3800
ENDCHAR
STARTCHAR thorn
ENCODING 254
SWIDTH 451 0
DWIDTH 11 0
BBX 16 26 -3 -10
BITMAP
0380
0300
0300
0300
0300
0600
0600
06E0
05E0
0E20
0C21
0C62
0866
1CCC
1FD8
1FF0
1200
3000
3000
3000
3000
6000
6000
6000
6000
E000
ENDCHAR
STARTCHAR ydieresis
ENCODING 255
SWIDTH 406 0
DWIDTH 10 0
BBX 9 23 0 -10
BITMAP
1900
3B80
0000
0000
6380
6380
6300
C300
C700
C600
CE00
DE00
F600
2400
0C00
0C00
0C00
0C00
1800
1800
1800
1800
3800
ENDCHAR
STARTCHAR dotlessi
ENCODING 305
SWIDTH 274 0
DWIDTH 7 0
BBX 8 9 0 0
BITMAP
30
70
60
61
61
42
C4
58
70
ENDCHAR
STARTCHAR Lslash
ENCODING 321
SWIDTH 492 0
DWIDTH 12 0
BBX 15 23 -2 -5
BITMAP
000C
003E
0036
0066
006C
00CC
00D8
00F0
1FE0
1FC0
0180
0180
03E0
0FC0
1B00
0300
0600
0600
7C00
FE08
FF98
E3F0
0060
ENDCHAR
STARTCHAR lslash
ENCODING 322
SWIDTH 218 0
DWIDTH 5 0
BBX 9 16 -2 0
BITMAP
0600
0600
0600
0E00
0C00
0C00
0F80
7F00
F800
1800
1800
1800
3000
3000
3000
3000
ENDCHAR
STARTCHAR OE
ENCODING 338
SWIDTH 918 0
DWIDTH 22 0
BBX 22 23 0 -5
BITMAP
018030
07E1FC
0F330C
0C360C
183E0C
183C0C
303C3C
303C10
703C00
603C00
603600
6037C0
E03C80
E03800
E07000
E06000
C06010
E0E010
E0F030
61F060
633DC0
3E1F80
080000
ENDCHAR
STARTCHAR oe
ENCODING 339
SWIDTH 583 0
DWIDTH 14 0
BBX 16 11 0 -1
BITMAP
0870
3CF0
67B0
6330
E361
FFC1
DF02
C604
CF18
7BF0
0080
ENDCHAR
STARTCHAR Scaron
ENCODING 352
SWIDTH 474 0
DWIDTH 11 0
BBX 15 27 -1 -5
BITMAP
00EE
0078
0000
0000
01E0
07B0
0E18
1C18
1818
1838
1830
1800
1C00
0E00
0700
0380
0380
0180
01C0
00C0
6080
C080
C180
E100
E300
7E00
1800
ENDCHAR
STARTCHAR scaron
ENCODING 353
SWIDTH 351 0
DWIDTH 8 0
BBX 9 16 0 -1
BITMAP
3B80
1E00
0000
0000
0800
1C00
3800
3800
3800
4C00
8C00
0C00
4600
6400
7800
3000
ENDCHAR
STARTCHAR Ydieresis
ENCODING 376
SWIDTH 532 0
DWIDTH 13 0
BBX 14 25 0 -4
BITMAP
0190
03B8
0000
000C
1C18
1818
1818
3838
3030
3030
3030
7070
6060
6060
60E0
61E0
6140
77C0
3CC0
0080
0180
0180
6300
FE00
7C00
ENDCHAR
STARTCHAR Zcaron
ENCODING 381
SWIDTH 455 0
DWIDTH 11 0
BBX 15 25 -2 -4
BITMAP
00EE
0078
0000
0000
0FFC
0F8C
081C
0018
0038
0030
0070
00E0
01C0
0180
0300
0600
0E00
1C00
1800
3000
7000
6000
C7C0
FFE0
FFC0
ENDCHAR
STARTCHAR zcaron
ENCODING 382
SWIDTH 349 0
DWIDTH 8 0
BBX 13 24 -3 -10
BITMAP
0770
01C0
0000
0000
0100
1FC0
1880
0180
0180
0308
0608
0F90
0CE0
09C0
0780
0D80
3100
2300
6300
C600
C600
CC00
D800
F800
ENDCHAR
STARTCHAR circumflex
ENCODING 710
SWIDTH 567 0
DWIDTH 14 0
BBX 7 2 5 14
BITMAP
38
EE
ENDCHAR
STARTCHAR caron
ENCODING 711
SWIDTH 567 0
DWIDTH 14 0
BBX 7 2 5 14
BITMAP
CE
70
ENDCHAR
STARTCHAR breve
ENCODING 728
SWIDTH 567 0
DWIDTH 14 0
BBX 6 3 5 13
BITMAP
C4
CC
78
ENDCHAR
STARTCHAR dotaccent
ENCODING 729
SWIDTH 567 0
DWIDTH 14 0
BBX 3 2 7 14
BITMAP
60
C0
ENDCHAR
STARTCHAR ring
ENCODING 730
SWIDTH 567 0
DWIDTH 14 0
BBX 3 3 7 13
BITMAP
E0
A0
C0
ENDCHAR
STARTCHAR ogonek
ENCODING 731
SWIDTH 567 0
DWIDTH 14 0
BBX 6 4 5 -3
BITMAP
60
C4
FC
70
ENDCHAR
STARTCHAR tilde
ENCODING 732
SWIDTH 567 0
DWIDTH 14 0
BBX 7 2 5 14
BITMAP
F2
FE
ENDCHAR
STARTCHAR hungarumlaut
ENCODING 733
SWIDTH 567 0
DWIDTH 14 0
BBX 8 3 4 13
BITMAP
33
77
CC
ENDCHAR
STARTCHAR endash
ENCODING 8211
SWIDTH 353 0
DWIDTH 8 0
BBX 8 2 0 6
BITMAP
FF
80
ENDCHAR
STARTCHAR emdash
ENCODING 8212
SWIDTH 508 0
DWIDTH 12 0
BBX 12 2 0 6
BITMAP
FFF0
8020
ENDCHAR
STARTCHAR quoteleft
ENCODING 8216
SWIDTH 155 0
DWIDTH 4 0
BBX 3 5 1 11
BITMAP
60
40
E0
E0
C0
ENDCHAR
STARTCHAR quoteright
ENCODING 8217
SWIDTH 154 0
DWIDTH 4 0
BBX 3 5 1 11
BITMAP
60
E0
60
60
40
ENDCHAR
STARTCHAR quotesinglbase
ENCODING 8218
SWIDTH 188 0
DWIDTH 5 0
BBX 3 5 -1 -3
BITMAP
E0
E0
60
40
80
ENDCHAR
STARTCHAR quotedblleft
ENCODING 8220
SWIDTH 289 0
DWIDTH 7 0
BBX 6 5 1 11
BITMAP
64
48
FC
FC
D8
ENDCHAR
STARTCHAR quotedblright
ENCODING 8221
SWIDTH 288 0
DWIDTH 7 0
BBX 7 5 1 11
BITMAP
6C
EE
24
4C
48
ENDCHAR
STARTCHAR quotedblbase
ENCODING 8222
SWIDTH 323 0
DWIDTH 8 0
BBX 6 5 -1 -3
BITMAP
EC
FC
6C
48
90
ENDCHAR
STARTCHAR bullet
ENCODING 8226
SWIDTH 180 0
DWIDTH 4 0
BBX 4 5 0 4
BITMAP
70
F0
F0
E0
C0
ENDCHAR
STARTCHAR ellipsis
ENCODING 8230
SWIDTH 614 0
DWIDTH 15 0
BBX 13 3 -1 -1
BITMAP
6318
E738
4210
ENDCHAR
STARTCHAR perthousand
ENCODING 8240
SWIDTH 851 0
DWIDTH 20 0
BBX 19 18 0 0
BITMAP
000400
1C1800
361800
623000
626000
464000
46C000
6D8000
390000
030000
0670C0
0CD3A0
0D9B20
191E20
311E20
311660
613660
E1E3C0
ENDCHAR
STARTCHAR guilsinglleft
ENCODING 8249
SWIDTH 202 0
DWIDTH 5 0
BBX 6 9 -1 0
BITMAP
0C
10
30
60
C0
40
60
20
30
ENDCHAR
STARTCHAR guilsinglright
ENCODING 8250
SWIDTH 202 0
DWIDTH 5 0
BBX 6 9 -2 0
BITMAP
30
10
18
18
0C
18
30
20
C0
ENDCHAR
STARTCHAR fraction
ENCODING 8260
SWIDTH 600 0
DWIDTH 14 0
BBX 14 18 1 0
BITMAP
0004
0018
0030
0020
0060
00C0
0080
0180
0300
0200
0600
0C00
1800
1800
3000
6000
6000
C000
ENDCHAR
STARTCHAR Euro
ENCODING 8364
SWIDTH 334 0
DWIDTH 8 0
BBX 10 14 -1 2
BITMAP
0180
06C0
0C40
1800
1800
3000
7F00
3000
FE00
A000
2000
2100
2300
1E00
ENDCHAR
STARTCHAR minus
ENCODING 8722
SWIDTH 353 0
DWIDTH 8 0
BBX 8 2 0 6
BITMAP
FF
80
ENDCHAR
STARTCHAR fi
ENCODING 64257
SWIDTH 549 0
DWIDTH 13 0
BBX 17 28 -2 -11
BITMAP
030000
070000
070C00
070C00
060000
060000
060000
040000
0C3800
0C3000
09F000
1E7080
386180
306100
386600
3C6C00
363800
260000
630000
630000
630000
430000
C20000
C60000
CC0000
DC0000
F80000
F00000
ENDCHAR
STARTCHAR fl
ENCODING 64258
SWIDTH 516 0
DWIDTH 12 0
BBX 15 28 -2 -11
BITMAP
0300
070E
070C
070C
060C
061C
0618
0418
0C18
0C38
09F0
1E30
3830
3070
3860
3C60
3660
2600
6300
6300
6300
4300
C200
C600
CC00
DC00
F800
F000
ENDCHAR
STARTCHAR .notdef
ENCODING -1
SWIDTH 280 0
DWIDTH 7 0
BBX 1 1 0 0
BITMAP
00
ENDCHAR
ENDFONT
